<svg xmlns="http://www.w3.org/2000/svg" xmlns:xlink="http://www.w3.org/1999/xlink" viewBox="0 0 259.08 258.11"><defs><style>.cls-1{fill:none;}.cls-2{clip-path:url(#clip-path);}.cls-3{fill:url(#radial-gradient);}.cls-4{fill:#075489;}</style><clipPath id="clip-path" transform="translate(27.26)"><circle class="cls-1" cx="115.91" cy="115.91" r="115.91"/></clipPath><radialGradient id="radial-gradient" cx="143.17" cy="115.91" r="115.91" gradientUnits="userSpaceOnUse"><stop offset="0" stop-color="#98bac4"/><stop offset="1" stop-color="#1475c4"/></radialGradient></defs><g id="Layer_2" data-name="Layer 2"><g id="Layer_1-2" data-name="Layer 1"><g class="cls-2"><circle class="cls-3" cx="143.17" cy="115.91" r="115.91"/><path class="cls-4" d="M108.59,240.35c0,4.07,8.67,9.28,15.66,7.83,11.06-2.3,8.39-19.35,26.6-40.7,5.61-6.57,10.77-10.7,9.4-14.08-2.29-5.64-19.7-1.82-20.35-4.7-.7-3.06,18.71-8.36,46.95-20.35,15.94-6.76,25-11.56,26.61-9.39,2.48,3.41-20.26,14.83-21.91,34.44-1.55,18.32,16.79,26.27,12.52,42.26-3.17,11.89-16,17.55-18.78,18.78-10,4.43-25.76,5.87-31.31-1.57-5.26-7.05,3.1-16.09-1.56-21.91C144.53,221.11,108.54,232,108.59,240.35Z" transform="translate(27.26)"/><path class="cls-4" d="M-4.89,137.05c17.16-4.38,20.58-4.54,25.05-8.61,2.27-2.07,6.84-6.23,6.26-11-.89-7.26-13.17-9.7-12.52-13.3.57-3.17,10-1.18,18-7.05C38.87,92,43.72,81.59,40.51,76c-3.87-6.72-18.2-4.37-25.83-3.13C8,74-11.69,77.19-14.28,87.74-16.63,97.33-3,105.59-6.45,112c-2.95,5.53-14,1.18-18.78,7.83-4,5.56-1.78,16.27,3.91,19.57C-18.7,140.91-16.7,140.06-4.89,137.05Z" transform="translate(27.26)"/><path class="cls-4" d="M59.29,130c-30.41,3.23-36.47,1.84-43,7.05-2.05,1.62-4.81,4.4-11,27.39C-3.36,196.73-4.34,215.27-8,215.31c-1.86,0-4.5-4.73-3.13-7.05,3.69-6.19,30.71,14.42,57.92,7.05,16.29-4.42,12.84-13.5,34.43-25.83,30.23-17.25,51.74-7.89,61.83-25,3.71-6.31,5.47-15.51,2.35-23.48-3.69-9.41-12.79-13.56-15.66-14.87-8.43-3.85-14.74-2.78-50.87,1.57Z" transform="translate(27.26)"/><path class="cls-4" d="M131.4,84.63c-1.48,5.68-6.72,6.4-6.27,11,.53,5.27,8.07,9.82,14.87,10.17a18.13,18.13,0,0,0,11-3.13c8.69-5.94,9.27-17.81,9.39-20.34.6-12.25-6-15.24-3.91-22.7,3.14-11,19.53-11.12,19.56-16.43.07-9.1-47.75-23.92-57.91-9.4-4.58,6.55-.77,18,.78,22.7C123.68,70.94,133.61,76.15,131.4,84.63Z" transform="translate(27.26)"/></g></g></g></svg>